:SAMPLES-PER-SECOND 30
:FULLY-SPECIFIED
:DEGREES
264
root  5.078088956 39.60444533 2.664422238 -1.049987793 -60.95899963 2.646972656
lowerback  10.72379971 1.552000046 -1.708019972
upperback  3.97939992 1.808230042 0.6375520229
thorax  -1.939039946 0.8491560221 1.401540041
lowerneck  -6.316329956 10.84220028 -0.4928990006
upperneck  5.341040134 14.55500031 -0.3357959986
head  2.773519993 7.211639881 0.598312974
lclavicle  0 -9.442270133e-015 7.951389973e-016
lhumerus  -0.8988230228 -15.0401001 81.98269653
lradius  2.754409892e-031 -2.209540718e-031 141.2640076
lwrist  -7.062250077e-031 3.531125038e-031 2.110719919
lhand  -1.496451383e-031 -27.76390076 20.11240005
lfingers  90 7.125020027 -90
lthumb  89.89689403 5.08795885 91.16245106
rclavicle  0 -9.442270133e-015 7.951389973e-016
rhumerus  7.101809978 27.78689957 -77.54139709
rradius  -2.640486519e-031 2.344498876e-031 138.397995
rwrist  1.412450015e-030 -1.765562519e-031 -6.289810181
rhand  -7.920061211e-032 -33.2840004 9.303460121
rfingers  -90 -7.125020027 -90
rthumb  -92.93752616 -24.25625642 -97.11982154
rfemur  -16.81999969 13.66769981 10.7198
rtibia  -0 0 52.80979919
rfoot  -0 -22.47669983 -11.45530033
rtoes  5.373923086 19.29304026 -105.8922705
lfemur  -22.86599922 1.314620018 -8.754529953
ltibia  -0 0 50.34560013
lfoot  4.531078764e-032 -13.05840015 6.171599865
ltoes  -4.250644065 -19.5611806 -102.515957
265
root  4.996444297 39.66911196 2.638555512 -1.651977539 -59.73600006 3.021972656
lowerback  10.74050045 1.537799954 -1.939910054
upperback  4.095849991 1.764539957 0.6277670264
thorax  -1.831859946 0.8237199783 1.528470039
lowerneck  -6.380109787 10.61590004 -0.5761020184
upperneck  5.091100216 14.26620007 -0.4730989933
head  2.705760002 7.064750195 0.5507010221
lclavicle  0 -9.442270133e-015 7.951389973e-016
lhumerus  -1.026659966 -15.28619957 82.52739716
lradius  2.750626338e-031 -2.214249034e-031 141.1660004
lwrist  -1.059337512e-030 -0 1.834900022
lhand  -1.496451383e-031 -27.76390076 20.11240005
lfingers  90 7.125020027 -90
lthumb  89.89689403 5.08795885 91.16245106
rclavicle  0 -9.442270133e-015 7.951389973e-016
rhumerus  6.745220184 27.80400085 -77.84680176
rradius  -2.643104136e-031 2.341547472e-031 138.4620056
rwrist  7.062250077e-031 -1.765562519e-031 -6.350749969
rhand  -7.920061211e-032 -33.2840004 9.303460121
rfingers  -90 -7.125020027 -90
rthumb  -92.93752616 -24.25625642 -97.11982154
rfemur  -16.65679932 13.0479002 10.65970039
rtibia  -0 0 53.70029831
rfoot  -0 -21.59140015 -11.41989994
rtoes  5.373923086 19.29304026 -105.8922705
lfemur  -22.89100075 0.6114450097 -8.83300972
ltibia  -0 0 50.27460098
lfoot  4.515369572e-032 -12.16919994 5.426839828
ltoes  -4.250644065 -19.5611806 -102.515957
266
root  4.912355378 39.76244589 2.605977772 -2.432983398 -58.36000061 3.697998047
lowerback  10.74260044 1.507179976 -2.444449902
upperback  4.136229992 1.674960017 0.6423680186
thorax  -1.800969958 0.775628984 1.838999987
lowerneck  -6.330090046 10.41329956 -0.7327250242
upperneck  4.96310997 14.01319981 -0.5697389841
head  2.649539948 6.934810162 0.5256829858
lclavicle  0 -9.442270133e-015 7.951389973e-016
lhumerus  -1.301419973 -15.49030018 83.19609833
lradius  2.745982986e-031 -2.220004838e-031 141.0460052
lwrist  -1.059337512e-030 -0 1.816969991
lhand  -1.496451383e-031 -27.76390076 20.11240005
lfingers  90 7.125020027 -90
lthumb  89.89689403 5.08795885 91.16245106
rclavicle  0 -9.442270133e-015 7.951389973e-016
rhumerus  6.244949818 28.05649948 -78.27420044
rradius  -2.643104136e-031 2.341547472e-031 138.4620056
rwrist  1.412450015e-030 -1.765562519e-031 -6.344299793
rhand  -7.920061211e-032 -33.2840004 9.303460121
rfingers  -90 -7.125020027 -90
rthumb  -92.93752616 -24.25625642 -97.11982154
rfemur  -16.64150047 12.44149971 10.28800011
rtibia  -0 0 54.70940018
rfoot  -0 -20.56850052 -10.80760002
rtoes  5.373923086 19.29304026 -105.8922705
lfemur  -23.02630043 0.1071159989 -9.111310005
ltibia  -0 0 50.07329941
lfoot  4.495239289e-032 -10.91569996 4.426050186
ltoes  -4.250644065 -19.5611806 -102.515957
267
root  4.827111162 39.88133228 2.570488885 -3.593017578 -56.90299988 4.75201416
lowerback  10.76089954 1.52797997 -3.125829935
upperback  4.184710026 1.63259995 0.5598000288
thorax  -1.772950053 0.7499079704 2.142329931
lowerneck  -6.074920177 10.17679977 -0.9751210213
upperneck  4.872550011 13.70530033 -0.4464229941
head  2.545370102 6.784389973 0.5664179921
lclavicle  0 -9.442270133e-015 7.951389973e-016
lhumerus  -1.58434999 -15.73379993 83.80560303
lradius  2.737205042e-031 -2.230818817e-031 140.8200073
lwrist  -1.412450015e-030 -0 2.074340105
lhand  -1.496451383e-031 -27.76390076 20.11240005
lfingers  90 7.125020027 -90
lthumb  89.89689403 5.08795885 91.16245106
rclavicle  0 -9.442270133e-015 7.951389973e-016
rhumerus  5.627699852 28.09000015 -78.57679749
rradius  -2.641795428e-031 2.343023891e-031 138.4299927
rwrist  7.062250077e-031 -0 -6.083250046
rhand  -7.920061211e-032 -33.2840004 9.303460121
rfingers  -90 -7.125020027 -90
rthumb  -92.93752616 -24.25625642 -97.11982154
rfemur  -16.60950089 11.76570034 9.562439919
rtibia  -0 0 55.77090073
rfoot  -0 -19.0265007 -9.98649025
rtoes  5.373923086 19.29304026 -105.8922705
lfemur  -23.02709961 -0.230399996 -9.69149971
ltibia  -0 0 49.72320175
lfoot  4.474115954e-032 -9.410340309 3.566210032
ltoes  -4.250644065 -19.5611806 -102.515957
268
root  4.738488911 40.00711216 2.53986674 -4.473999023 -55.44499969 5.393005371
lowerback  10.70940018 1.524489999 -3.411170006
upperback  4.291140079 1.597040057 0.3501810133
thorax  -1.632969975 0.7276660204 2.092070103
lowerneck  -5.707339764 9.900520325 -1.076740026
upperneck  4.820169926 13.31760025 -0.1102430001
head  2.42998004 6.603360176 0.6432210207
lclavicle  0 -9.442270133e-015 7.951389973e-016
lhumerus  -1.834190011 -16.21319962 84.07510376
lradius  2.72505577e-031 -2.245643579e-031 140.5090027
lwrist  -7.062250077e-031 -3.531125038e-031 2.482759953
lhand  -1.496451383e-031 -27.76390076 20.11240005
lfingers  90 7.125020027 -90
lthumb  89.89689403 5.08795885 91.16245106
rclavicle  0 -9.442270133e-015 7.951389973e-016
rhumerus  4.939949989 27.87579918 -79.01979828
rradius  -2.640773089e-031 2.344176087e-031 138.4049988
rwrist  0 -0 -6.184780121
rhand  -7.920061211e-032 -33.2840004 9.303460121
rfingers  -90 -7.125020027 -90
rthumb  -92.93752616 -24.25625642 -97.11982154
rfemur  -16.58309937 10.98250008 8.997779846
rtibia  -0 0 56.84960175
rfoot  -0 -16.66629982 -9.209710121
rtoes  5.373923086 19.29304026 -105.8922705
lfemur  -22.87120056 -0.5012289882 -10.05650043
ltibia  -0 0 49.27180099
lfoot  4.456409157e-032 -7.919539928 2.633470058
ltoes  -4.250644065 -19.5611806 -102.515957
269
root  4.64662229 40.1340004 2.51671104 -5.195007324 -53.93199921 5.833007812
lowerback  10.67780018 1.511559963 -3.519500017
upperback  4.378079891 1.566089988 0.1115150005
thorax  -1.519430041 0.7099779844 1.910850048
lowerneck  -5.488130093 9.606280327 -1.128589988
upperneck  5.062580109 12.90110016 0.3275899887
head  2.438999891 6.406919956 0.7652109861
lclavicle  0 -9.442270133e-015 7.951389973e-016
lhumerus  -2.175740004 -17.59309959 84.35320282
lradius  2.715546401e-031 -2.257133532e-031 140.2669983
lwrist  -1.412450015e-030 -0 3.447750092
lhand  -1.496451383e-031 -27.76390076 20.11240005
lfingers  90 7.125020027 -90
lthumb  89.89689403 5.08795885 91.16245106
rclavicle  0 -9.442270133e-015 7.951389973e-016
rhumerus  4.242280006 27.3913002 -79.55180359
rradius  -2.645228248e-031 2.339147613e-031 138.5140076
rwrist  7.062250077e-031 -0 -7.396860123
rhand  -7.920061211e-032 -33.2840004 9.303460121
rfingers  -90 -7.125020027 -90
rthumb  -92.93752616 -24.25625642 -97.11982154
rfemur  -16.59600067 10.26970005 8.498749733
rtibia  -0 0 57.91210175
rfoot  -0 -14.07009983 -8.322299957
rtoes  5.373923086 19.29304026 -105.8922705
lfemur  -22.57189941 -0.6943659782 -10.3192997
ltibia  -0 0 48.70759964
lfoot  4.441880182e-032 -6.433670044 1.450520039
ltoes  -4.250644065 -19.5611806 -102.515957
270
root  4.551066752 40.28222092 2.494355637 -5.864013672 -52.41600037 6.263000488
lowerback  10.72270012 1.519899964 -3.74842
upperback  4.394869804 1.55092001 -0.02978600003
thorax  -1.526829958 0.7018730044 1.894080043
lowerneck  -5.538650036 9.301010132 -1.380020022
upperneck  5.707210064 12.48359966 0.8722370267
head  2.614520073 6.204490185 0.9846429825
lclavicle  0 -9.442270133e-015 7.951389973e-016
lhumerus  -2.412760019 -17.91539955 84.76170349
lradius  2.694312659e-031 -2.282438024e-031 139.7310028
lwrist  -1.059337512e-030 -1.765562519e-031 3.382270098
lhand  -1.496451383e-031 -27.76390076 20.11240005
lfingers  90 7.125020027 -90
lthumb  89.89689403 5.08795885 91.16245106
rclavicle  0 -9.442270133e-015 7.951389973e-016
rhumerus  3.665040016 26.78580093 -79.95140076
rradius  -2.653092332e-031 2.330224262e-031 138.7070007
rwrist  7.062250077e-031 -1.765562519e-031 -9.104909897
rhand  -7.920061211e-032 -33.2840004 9.303460121
rfingers  -90 -7.125020027 -90
rthumb  -92.93752616 -24.25625642 -97.11982154
rfemur  -16.6739006 9.75632 7.976439953
rtibia  -0 0 58.93170166
rfoot  -0 -11.58710003 -7.324309826
rtoes  5.373923086 19.29304026 -105.8922705
lfemur  -22.24780083 -0.7501339912 -10.61470032
ltibia  -0 0 48.01819992
lfoot  4.706945107e-032 -4.895319939 0.1669660062
ltoes  -4.250644065 -19.5611806 -102.515957
271
root  4.447400101 40.45155443 2.465244353 -6.284973145 -50.8789978 6.508972168
lowerback  10.76669979 1.529399991 -3.977319956
upperback  4.333240032 1.53915 -0.1026140004
thorax  -1.617239952 0.6984829903 1.946910024
lowerneck  -5.745600224 9.012539864 -1.641899943
upperneck  6.608210087 12.08689976 1.438109994
head  2.909620047 6.010739803 1.236089945
lclavicle  0 -9.442270133e-015 7.951389973e-016
lhumerus  -2.679229975 -18.33049965 85.08339691
lradius  2.669658522e-031 -2.311226387e-031 139.1159973
lwrist  -1.059337512e-030 -3.531125038e-031 3.590759993
lhand  -1.496451383e-031 -27.76390076 20.11240005
lfingers  90 7.125020027 -90
lthumb  89.89689403 5.08795885 91.16245106
rclavicle  0 -9.442270133e-015 7.951389973e-016
rhumerus  3.143019915 26.38240051 -80.34380341
rradius  -2.649306427e-031 2.334527681e-031 138.6139984
rwrist  7.062250077e-031 -0 -9.588580132
rhand  -7.920061211e-032 -33.2840004 9.303460121
rfingers  -90 -7.125020027 -90
rthumb  -92.93752616 -24.25625642 -97.11982154
rfemur  -16.87669945 9.377140045 7.570439816
rtibia  -0 0 59.89479828
rfoot  -0 -8.891850471 -6.801270008
rtoes  5.373923086 19.29304026 -105.8922705
lfemur  -22.08659935 -0.6944789886 -10.82040024
ltibia  -0 0 47.19390106
lfoot  4.421509457e-032 -3.36055994 -1.226250052
ltoes  -4.250644065 -19.5611806 -102.515957
272
root  4.341466784 40.58422179 2.432177761 -6.536987305 -49.18699646 6.643005371
lowerback  10.72710037 1.495380044 -4.130839825
upperback  4.256949902 1.481320024 -0.1896809936
thorax  -1.672279954 0.6730629802 1.94975996
lowerneck  -5.901959896 8.746509552 -1.797369957
upperneck  7.424160004 11.70919991 1.934540033
head  3.18453002 5.829030037 1.446339965
lclavicle  0 -9.442270133e-015 7.951389973e-016
lhumerus  -2.694339991 -18.56529999 85.03929901
lradius  2.639381702e-031 -2.345742583e-031 138.3710022
lwrist  -1.412450015e-030 -1.765562519e-031 4.274260044
lhand  -1.496451383e-031 -27.76390076 20.11240005
lfingers  90 7.125020027 -90
lthumb  89.89689403 5.08795885 91.16245106
rclavicle  0 -9.442270133e-015 7.951389973e-016
rhumerus  2.627729893 26.04899979 -80.65329742
rradius  -2.640404724e-031 2.344590994e-031 138.3959961
rwrist  7.062250077e-031 -1.765562519e-031 -9.554670334
rhand  -7.920061211e-032 -33.2840004 9.303460121
rfingers  -90 -7.125020027 -90
rthumb  -92.93752616 -24.25625642 -97.11982154
rfemur  -17.19619942 9.009300232 7.249670029
rtibia  -0 0 60.8443985
rfoot  -8.875346808e-032 -5.932559967 -6.842070103
rtoes  5.373923086 19.29304026 -105.8922705
lfemur  -21.99489975 -0.8425109982 -10.96290016
ltibia  -0 0 46.31000137
lfoot  4.415808482e-032 -1.681800008 -2.541090012
ltoes  -4.250644065 -19.5611806 -102.515957
